<?xml version="1.0" encoding="iso-8859-1"?>
<!-- Generator: Adobe Illustrator 16.0.0, SVG Export Plug-In . SVG Version: 6.00 Build 0)  -->
<!DOCTYPE svg PUBLIC "-//W3C//DTD SVG 1.1//EN" "http://www.w3.org/Graphics/SVG/1.1/DTD/svg11.dtd">
<svg version="1.1" id="Capa_1" xmlns="http://www.w3.org/2000/svg" xmlns:xlink="http://www.w3.org/1999/xlink" x="0px" y="0px"
	 fill="#fff" width="421.613px" height="421.613px" viewBox="0 0 421.613 421.613" style="enable-background:new 0 0 421.613 421.613;"
	 xml:space="preserve">
<g>
	<path d="M364.049,12.18c-5.508-2.448-12.24,1.836-10.403,7.956c3.06,12.852,3.06,25.704,4.283,38.556
		c-58.752-11.628-118.728-17.136-178.704-14.075c-49.572,3.06-107.1,12.852-138.312,55.079
		C-16.615,177.42-3.763,302.268,20.717,389.784c-1.224,3.061-0.612,7.345,3.672,9.181c15.3,6.12,31.212,8.567,47.736,9.792
		c17.136,1.224,37.944,3.06,54.468-1.836c3.672,0.611,7.956-3.061,6.732-7.345c-7.344-32.436-27.54-63.036-36.108-96.084
		c-11.016-41.615-13.464-88.128,8.568-126.684c47.124-82.62,165.852-53.244,244.188-69.768c1.225,14.688,3.673,29.376,7.956,44.063
		c1.836,5.508,7.956,7.345,12.24,3.061c22.645-21.42,50.185-32.437,51.408-66.708C422.801,53.184,392.812,25.033,364.049,12.18z
		 M368.945,135.804c-3.061-11.628-4.284-23.868-4.896-36.108c-0.612-7.344-9.18-8.567-12.852-4.283
		c-89.353,11.016-209.304-12.853-261.937,80.172c-19.584,34.884-16.524,78.336-9.792,116.279
		c6.12,31.212,17.136,74.052,36.108,102.816c-9.792-0.612-20.196,0.611-29.988,0.611c-18.36,0-36.72-1.836-54.468-6.731
		c0,0,0,0,0-0.612c-12.852-86.903-33.66-190.331,14.688-270.504c29.376-48.96,91.188-56.304,142.596-59.363
		c57.528-3.061,116.28,3.672,172.584,15.3c1.836,2.448,6.731,1.836,7.344-1.225c3.672-3.06,4.284-9.18-0.612-11.628
		c0-10.403,0.612-20.195,0-30.6c20.196,12.24,36.721,31.824,37.944,56.304C408.113,109.488,386.081,122.953,368.945,135.804z"/>
</g>
<g>
</g>
<g>
</g>
<g>
</g>
<g>
</g>
<g>
</g>
<g>
</g>
<g>
</g>
<g>
</g>
<g>
</g>
<g>
</g>
<g>
</g>
<g>
</g>
<g>
</g>
<g>
</g>
<g>
</g>
</svg>
