<?xml version="1.0" standalone="no"?>
<svg viewBox="0 0 200 200" xmlns="http://www.w3.org/2000/svg">
  <path fill="#89A141" d="M48.1,-72.4C60.4,-66.9,67,-50.3,70.2,-34.6C73.3,-18.9,73,-4.2,72.7,11.7C72.4,27.7,72.2,45,63.9,56.5C55.7,68.1,39.6,73.9,24.3,74.8C9,75.8,-5.5,71.8,-18.1,66.1C-30.8,60.5,-41.7,53,-54.6,44C-67.5,35,-82.5,24.5,-88,10.4C-93.6,-3.8,-89.9,-21.5,-79.6,-33.2C-69.3,-44.8,-52.6,-50.3,-38.2,-54.7C-23.9,-59.2,-11.9,-62.7,3,-67.3C17.9,-71.9,35.8,-77.8,48.1,-72.4Z" transform="translate(100 100)" />
</svg>
