<?xml version="1.0" standalone="no"?>
<svg viewBox="0 0 200 200" xmlns="http://www.w3.org/2000/svg">
  <path fill="#FF0066" d="M41.9,-66.4C52.9,-58.1,59.6,-44.2,68,-29.8C76.4,-15.5,86.7,-0.8,87.9,14.9C89.2,30.5,81.4,47.1,69.9,60.7C58.4,74.3,43.2,84.9,28,84.3C12.8,83.8,-2.5,72.1,-18.1,65.7C-33.8,59.2,-49.8,58.1,-59.3,49.9C-68.9,41.6,-71.9,26.2,-71.3,12C-70.6,-2.2,-66.3,-15.3,-61.9,-29.7C-57.5,-44.1,-53.1,-59.9,-42.8,-68.5C-32.4,-77.1,-16.2,-78.5,-0.4,-77.9C15.4,-77.3,30.9,-74.7,41.9,-66.4Z" transform="translate(100 100)" />
</svg>
