<?xml version="1.0" standalone="no"?>
<svg viewBox="0 0 200 200" xmlns="http://www.w3.org/2000/svg">
  <path fill="#08BDBA" d="M47.8,-74.3C59.9,-66.6,66.3,-49.9,66.8,-34.6C67.4,-19.4,62.1,-5.6,52,1.6C41.8,8.9,26.8,9.5,19.9,17C13.1,24.5,14.3,38.8,11.1,41.3C7.9,43.8,0.3,34.5,-10.6,32.8C-21.4,31.1,-35.5,37,-45.5,34.4C-55.4,31.9,-61.3,20.8,-59.3,10.7C-57.4,0.7,-47.6,-8.3,-43,-20.1C-38.4,-32,-38.9,-46.6,-32.6,-56.9C-26.3,-67.3,-13.1,-73.2,2.4,-76.9C17.8,-80.6,35.7,-81.9,47.8,-74.3Z" transform="translate(100 100)" />
</svg>
